<svg width="364" height="263" viewBox="0 0 364 263" fill="none" xmlns="http://www.w3.org/2000/svg">
<title>SNAPI</title>
<g clip-path="url(#clip0_1_2)">
<path d="M308.783 131.5C308.783 203.849 250.133 262.5 177.783 262.5C105.434 262.5 46.7834 203.849 46.7834 131.5C46.7834 59.1507 105.434 0.5 177.783 0.5C250.133 0.5 308.783 59.1507 308.783 131.5Z" fill="#FAEDE1" stroke="#343434"/>
<path d="M150.5 249.5C152 253.5 165.5 263 179 263H8.78339C8.61672 255.5 8.38339 240.1 8.78339 238.5C9.28339 236.5 4.7834 236 1.2834 234.5C-2.2166 233 2.2834 230.5 4.7834 230C7.2834 229.5 9.7834 229 9.7834 226.5C9.7834 224 10.2834 215.5 11.2834 211C12.2834 206.5 8.7834 206.5 7.2834 205C5.7834 203.5 5.2834 199 7.2834 198.5C9.2834 198 12.2834 199 15.2834 197C18.2834 195 17.7834 192 19.2834 188.5C20.7834 185 16.2834 182.5 13.7834 180.5C11.2834 178.5 13.7834 174 16.2834 174C18.7834 174 22.2834 175 24.2834 174C26.2834 173 29.2834 169.5 30.2834 167.5C31.2834 165.5 31.2834 162 30.2834 161C29.2834 160 27.7834 154.5 29.2834 152.5C30.7834 150.5 33.7834 151 35.2834 151C36.7834 151 39.7834 153.5 41.7834 152.5C43.7834 151.5 55.2834 139 57.2834 137.5C59.2834 136 58.2834 133.5 57.2834 132.5C56.2834 131.5 56.7834 126 57.2834 125C57.7834 124 58.7834 124 61.7834 124C64.7834 124 67.2834 126.5 69.2834 126C71.2834 125.5 77.7834 120 82.2834 118C86.7834 116 86.2834 114.5 86.7834 112.5C87.2834 110.5 88.2834 109 90.7834 108.5C93.2834 108 96.2834 111 98.2834 111C100.283 111 118.283 105.5 122.283 103C126.283 100.5 127.783 99 127.783 97.5C127.783 96 129.283 93.5 132.783 93.5C136.283 93.5 135.283 96.5 139.783 96.5C144.283 96.5 150.783 93 155.283 92C159.783 91 157.283 88.5 158.783 84C160.283 79.5 165.283 82.5 167.783 84C170.283 85.5 175.783 82.5 181.783 79C187.783 75.5 187.783 70 189.283 67.5C190.783 65 195.783 61 202.283 59.5C208.783 58 212.283 60 214.783 61C217.283 62 216.283 62.5 221.783 61.5C227.283 60.5 230.283 61.5 235.283 64.5C240.283 67.5 243.783 79 246.283 81.5C248.783 84 267.283 83.5 273.283 83L273.617 82.9723C279.303 82.4991 279.859 82.4529 283.783 80C287.783 77.5 291.283 77.5 295.283 78C299.283 78.5 307.283 78 311.783 76.5C316.283 75 313.783 74 316.283 71C318.783 68 323.283 69.5 323.783 70.5C324.283 71.5 330.783 71.5 332.283 70.5C333.783 69.5 338.283 66.5 342.783 66.5C347.283 66.5 348.783 68 355.783 70.5C362.783 73 365.283 84 364.283 99C363.283 114 342.283 123.5 338.283 124C334.283 124.5 319.5 133.5 316.283 135C313.067 136.5 307.5 138.5 307.5 138.5C307.5 138.5 292.783 143.5 286.783 145C280.783 146.5 271.783 150 267.283 152C262.783 154 245.783 166 239.283 170C232.783 174 221.783 176.5 206.783 178.5C196 179.938 184.816 193.184 180.5 197.5C176.5 201.5 173.5 203.5 168.5 209.5C166.032 212.462 163.95 215.525 154 223C144.05 230.475 149 245.5 150.5 249.5Z" fill="#343434" stroke="#343434"/>
<path d="M342.283 69.5C364.783 72.5 357.783 93 357.783 93V98.5C357.783 99.5 357.783 105 350.283 109.5C342.783 114 331.783 119.5 326.783 121C321.783 122.5 312.783 129 310.283 130C307.783 131 277.783 141 268.783 143.5C259.943 145.956 248.689 155.166 243.081 159.757L242.783 160C237.283 164.5 219.783 169.5 214.283 169.5C205.283 169.5 185.283 174 171.283 189.5C157.283 205 156.283 205.3 152.283 208.5C147.908 212 140.783 219 132.783 219V240.5C134.5 250 140.5 263 140.5 263H114.5H11.7834C11.7834 255 13.2834 222 14.7834 214.5C16.2834 207 17.2834 206.5 13.2834 204.5C9.28338 202.5 10.7834 200 13.2834 200C15.7834 200 16.2834 201 17.2834 200C18.2834 199 25.2834 185 21.7834 182.5C18.2834 180 17.2834 177.5 19.2834 177.5C21.2834 177.5 26.2834 179 28.2834 176C29.8834 173.6 33.6167 166 35.2834 162.5C31.7834 158.5 33.2834 152.5 35.2834 155.5C36.8834 157.9 39.7834 159.5 41.2834 159C42.7834 158.5 62.7834 136.5 62.2834 133.5C61.7902 130.541 61.2834 126.5 63.2834 128C65.2834 129.5 67.3263 131.082 69.2834 130C88.2834 119.5 89.7834 121.5 90.7834 116C91.4158 112.521 91.2834 111.5 93.2834 113C95.2834 114.5 95.7834 116 100.783 114.5C104.117 113.5 131.483 106.5 131.783 103.5C132.283 98.5 134.273 99.0103 136.283 101C137.109 101.818 138.709 101.955 140.783 101.632C144.283 101 160.41 95.4307 161.283 92.2426C163.786 83.1084 164.211 88.113 168.283 89.1697C172.356 90.2264 188.157 81 188.783 77C190.178 68.0947 199.283 63 205.283 62.5C211.283 62 215.283 66.5 218.283 66.5C220.683 66.5 223.95 65.1667 225.283 64.5C229.283 64.5 233.283 67.5 236.283 72.5C239.283 77.5 240.783 84 248.283 86C254.283 87.6 267.783 86.6667 273.783 86C289.283 84.5 280.283 80.9 292.283 81.5C312.283 82.5 316.283 78.5 318.283 77C320.283 75.5 318.283 71 322.283 72.5C326.283 74 324.783 76.5 330.783 75C335.583 73.8 340.45 70.8333 342.283 69.5Z" fill="#378D5A"/>
<path d="M204.783 116.5C207.283 116.5 211.783 119 215.283 121C218.783 123 225.283 124 229.283 124.5C233.283 125 245.283 125 254.783 123C264.283 121 316.283 110 326.283 105C336.283 100 348.783 93 357.783 93M357.783 93C357.783 93 364.783 72.5 342.283 69.5C340.45 70.8333 335.583 73.8 330.783 75C324.783 76.5 326.283 74 322.283 72.5C318.283 71 320.283 75.5 318.283 77C316.283 78.5 312.283 82.5 292.283 81.5C280.283 80.9 289.283 84.5 273.783 86C267.783 86.6667 254.283 87.6 248.283 86C240.783 84 239.283 77.5 236.283 72.5C233.283 67.5 229.283 64.5 225.283 64.5C223.95 65.1667 220.683 66.5 218.283 66.5C215.283 66.5 211.283 62 205.283 62.5C199.283 63 190.178 68.0947 188.783 77C188.157 81 172.356 90.2264 168.283 89.1697C164.211 88.113 163.786 83.1084 161.283 92.2426C160.41 95.4307 144.283 101 140.783 101.632C138.709 101.955 137.109 101.818 136.283 101C134.273 99.0103 132.283 98.5 131.783 103.5C131.483 106.5 104.117 113.5 100.783 114.5C95.7834 116 95.2834 114.5 93.2834 113C91.2834 111.5 91.4158 112.521 90.7834 116C89.7834 121.5 88.2834 119.5 69.2834 130C67.3263 131.082 65.2834 129.5 63.2834 128C61.2834 126.5 61.7902 130.541 62.2834 133.5C62.7834 136.5 42.7834 158.5 41.2834 159C39.7834 159.5 36.8834 157.9 35.2834 155.5C33.2834 152.5 31.7834 158.5 35.2834 162.5C33.6167 166 29.8834 173.6 28.2834 176C26.2834 179 21.2834 177.5 19.2834 177.5C17.2834 177.5 18.2834 180 21.7834 182.5C25.2834 185 18.2834 199 17.2834 200C16.2834 201 15.7834 200 13.2834 200C10.7834 200 9.28338 202.5 13.2834 204.5C17.2834 206.5 16.2834 207 14.7834 214.5C13.2834 222 11.7834 255 11.7834 263H114.5C116.5 263 140.5 263 140.5 263C140.5 263 134.5 250 132.783 240.5C132.783 233 132.783 225.5 132.783 219C140.783 219 147.908 212 152.283 208.5C156.283 205.3 157.283 205 171.283 189.5C185.283 174 205.283 169.5 214.283 169.5C219.783 169.5 237.283 164.5 242.783 160C248.283 155.5 259.783 146 268.783 143.5C277.783 141 307.783 131 310.283 130C312.783 129 321.783 122.5 326.783 121C331.783 119.5 342.783 114 350.283 109.5C357.783 105 357.783 99.5 357.783 98.5C357.783 97.7 357.783 94.5 357.783 93Z" stroke="#343434" stroke-linecap="round"/>
<path d="M129.783 192.5C132.183 194.1 132.783 201.5 132.783 205V219C132.783 224.167 132.783 235.9 132.783 241.5C132.783 247.1 138.261 258.333 141 263H114C111.833 261.167 107.8 256.835 105.5 250C103.096 242.855 97.0615 240.401 94 237C90.7053 233.34 82 220.5 82 218" stroke="#343434" stroke-linecap="round"/>
<path d="M223.783 86C223.783 91.8212 219.285 96.5 213.783 96.5C208.282 96.5 203.783 91.8212 203.783 86C203.783 80.1788 208.282 75.5 213.783 75.5C219.285 75.5 223.783 80.1788 223.783 86Z" fill="#2A794A" stroke="#343434"/>
<path d="M204.783 90.5C205.144 90.9444 206.121 92 209.148 92C212.932 92 221.662 92.1111 223.283 89" stroke="#343434" stroke-linecap="round"/>
</g>
<defs>
<clipPath id="clip0_1_2">
<rect width="364" height="263" fill="white"/>
</clipPath>
</defs>
</svg>
