<?xml version="1.0" encoding="UTF-8" standalone="no"?>
<svg
   xmlns:dc="http://purl.org/dc/elements/1.1/"
   xmlns:cc="http://creativecommons.org/ns#"
   xmlns:rdf="http://www.w3.org/1999/02/22-rdf-syntax-ns#"
   xmlns:svg="http://www.w3.org/2000/svg"
   xmlns="http://www.w3.org/2000/svg"
   xmlns:sodipodi="http://sodipodi.sourceforge.net/DTD/sodipodi-0.dtd"
   xmlns:inkscape="http://www.inkscape.org/namespaces/inkscape"
   width="364"
   height="263"
   viewBox="0 0 364 263"
   fill="none"
   version="1.1"
   id="svg25"
   sodipodi:docname="snapi_blk.svg"
   inkscape:version="1.0.1 (3bc2e813f5, 2020-09-07)">
  <metadata
     id="metadata29">
    <rdf:RDF>
      <cc:Work
         rdf:about="">
        <dc:format>image/svg+xml</dc:format>
        <dc:type
           rdf:resource="http://purl.org/dc/dcmitype/StillImage" />
        <dc:title>SNAPI</dc:title>
      </cc:Work>
    </rdf:RDF>
  </metadata>
  <sodipodi:namedview
     pagecolor="#ffffff"
     bordercolor="#666666"
     borderopacity="1"
     objecttolerance="10"
     gridtolerance="10"
     guidetolerance="10"
     inkscape:pageopacity="0"
     inkscape:pageshadow="2"
     inkscape:window-width="1258"
     inkscape:window-height="1040"
     id="namedview27"
     showgrid="false"
     inkscape:zoom="1.4313187"
     inkscape:cx="191.17588"
     inkscape:cy="183.8788"
     inkscape:window-x="2283"
     inkscape:window-y="182"
     inkscape:window-maximized="0"
     inkscape:current-layer="layer1"
     inkscape:document-rotation="0" />
  <title
     id="title2">SNAPI</title>
  <defs
     id="defs23">
    <clipPath
       id="clip0_1_2">
      <rect
         width="364"
         height="263"
         fill="white"
         id="rect20" />
    </clipPath>
  </defs>
  <g
     inkscape:groupmode="layer"
     id="layer2"
     inkscape:label="3"
     style="display:inline">
    <rect
       style="fill:#000000"
       id="rect39"
       width="440.67004"
       height="304.31921"
       x="-33.593681"
       y="-17.784889" />
  </g>
  <g
     inkscape:groupmode="layer"
     id="layer1"
     inkscape:label="2"
     style="display:inline">
    <g
       clip-path="url(#clip0_1_2)"
       id="g18">
      <path
         d="m 308.783,131.5 c 0,72.349 -58.65,131 -131,131 -72.349,0 -130.9996,-58.651 -130.9996,-131 0,-72.3493 58.6506,-131 130.9996,-131 72.35,0 131,58.6507 131,131 z"
         fill="#faede1"
         stroke="#343434"
         id="path4" />
      <path
         d="m 150.5,249.5 c 1.5,4 15,13.5 28.5,13.5 H 8.78339 c -0.16667,-7.5 -0.4,-22.9 0,-24.5 0.5,-2 -3.99999,-2.5 -7.49999,-4 -3.5,-1.5 1,-4 3.5,-4.5 2.5,-0.5 5,-1 5,-3.5 0,-2.5 0.5,-11 1.5,-15.5 1,-4.5 -2.5,-4.5 -4,-6 -1.5,-1.5 -2,-6 0,-6.5 2,-0.5 5,0.5 8,-1.5 3,-2 2.5,-5 4,-8.5 1.5,-3.5 -3,-6 -5.5,-8 -2.5,-2 0,-6.5 2.5,-6.5 2.5,0 6,1 8,0 2,-1 5,-4.5 6,-6.5 1,-2 1,-5.5 0,-6.5 -1,-1 -2.5,-6.5 -1,-8.5 1.5,-2 4.5,-1.5 6,-1.5 1.5,0 4.5,2.5 6.5,1.5 2,-1 13.5,-13.5 15.5,-15 2,-1.5 1,-4 0,-5 -1,-1 -0.5,-6.5 0,-7.5 0.5,-1 1.5,-1 4.5,-1 3,0 5.5,2.5 7.5,2 2,-0.5 8.5,-6 13,-8 4.5,-2 4,-3.5 4.5,-5.5 0.5,-2 1.5,-3.5 4,-4 2.5,-0.5 5.5,2.5 7.5,2.5 1.9996,0 19.9996,-5.5 23.9996,-8 4,-2.5 5.5,-4 5.5,-5.5 0,-1.5 1.5,-4 5,-4 3.5,0 2.5,3 7,3 4.5,0 11,-3.5 15.5,-4.5 4.5,-1 2,-3.5 3.5,-8 1.5,-4.5 6.5,-1.5 9,0 2.5,1.5 8,-1.5 14,-5 6,-3.5 6,-9 7.5,-11.5 1.5,-2.5 6.5,-6.5 13,-8 6.5,-1.5 10,0.5 12.5,1.5 2.5,1 1.5,1.5 7,0.5 5.5,-1 8.5,0 13.5,3 5,3 8.5,14.5 11,17 2.5,2.5 21,2 27,1.5 l 0.334,-0.0277 c 5.686,-0.4732 6.242,-0.5194 10.166,-2.9723 4,-2.5 7.5,-2.5 11.5,-2 4,0.5 12,0 16.5,-1.5 4.5,-1.5 2,-2.5 4.5,-5.5 2.5,-3 7,-1.5 7.5,-0.5 0.5,1 7,1 8.5,0 1.5,-1 6,-4 10.5,-4 4.5,0 6,1.5 13,4 7,2.5 9.5,13.5 8.5,28.5 -1,15 -22,24.5 -26,25 -4,0.5 -18.783,9.5 -22,11 -3.216,1.5 -8.783,3.5 -8.783,3.5 0,0 -14.717,5 -20.717,6.5 -6,1.5 -15,5 -19.5,7 -4.5,2 -21.5,14 -28,18 -6.5,4 -17.5,6.5 -32.5,8.5 -10.783,1.438 -21.967,14.684 -26.283,19 -4,4 -7,6 -12,12 -2.468,2.962 -4.55,6.025 -14.5,13.5 -9.95,7.475 -5,22.5 -3.5,26.5 z"
         fill="#343434"
         stroke="#343434"
         id="path6" />
      <path
         d="m 342.283,69.5 c 22.5,3 15.5,23.5 15.5,23.5 v 5.5 c 0,1 0,6.5 -7.5,11 -7.5,4.5 -18.5,10 -23.5,11.5 -5,1.5 -14,8 -16.5,9 -2.5,1 -32.5,11 -41.5,13.5 -8.84,2.456 -20.094,11.666 -25.702,16.257 L 242.783,160 c -5.5,4.5 -23,9.5 -28.5,9.5 -9,0 -29,4.5 -43,20 -14,15.5 -15,15.8 -19,19 -4.375,3.5 -11.5,10.5 -19.5,10.5 v 21.5 C 134.5,250 140.5,263 140.5,263 h -26 -102.7166 c 0,-8 1.5,-41 3,-48.5 1.5,-7.5 2.5,-8 -1.5,-10 -4.00002,-2 -2.5,-4.5 0,-4.5 2.5,0 3,1 4,0 1,-1 8,-15 4.5,-17.5 -3.5,-2.5 -4.5,-5 -2.5,-5 2,0 7,1.5 9,-1.5 1.6,-2.4 5.3333,-10 7,-13.5 -3.5,-4 -2,-10 0,-7 1.6,2.4 4.5,4 6,3.5 1.5,-0.5 21.5,-22.5 21,-25.5 -0.4932,-2.959 -1,-7 1,-5.5 2,1.5 4.0429,3.082 6,2 19,-10.5 20.5,-8.5 21.5,-14 0.6324,-3.479 0.5,-4.5 2.5,-3 2,1.5 2.5,3 7.4996,1.5 3.334,-1 30.7,-8 31,-11 0.5,-5 2.49,-4.4897 4.5,-2.5 0.826,0.818 2.426,0.955 4.5,0.632 3.5,-0.632 19.627,-6.2013 20.5,-9.3894 2.503,-9.1342 2.928,-4.1296 7,-3.0729 4.073,1.0567 19.874,-8.1697 20.5,-12.1697 1.395,-8.9053 10.5,-14 16.5,-14.5 6,-0.5 10,4 13,4 2.4,0 5.667,-1.3333 7,-2 4,0 8,3 11,8 3,5 4.5,11.5 12,13.5 6,1.6 19.5,0.6667 25.5,0 15.5,-1.5 6.5,-5.1 18.5,-4.5 20,1 24,-3 26,-4.5 2,-1.5 0,-6 4,-4.5 4,1.5 2.5,4 8.5,2.5 4.8,-1.2 9.667,-4.1667 11.5,-5.5 z"
         fill="#378d5a"
         id="path8" />
      <path
         d="m 204.783,116.5 c 2.5,0 7,2.5 10.5,4.5 3.5,2 10,3 14,3.5 4,0.5 16,0.5 25.5,-1.5 9.5,-2 61.5,-13 71.5,-18 10,-5 22.5,-12 31.5,-12 m 0,0 c 0,0 7,-20.5 -15.5,-23.5 -1.833,1.3333 -6.7,4.3 -11.5,5.5 -6,1.5 -4.5,-1 -8.5,-2.5 -4,-1.5 -2,3 -4,4.5 -2,1.5 -6,5.5 -26,4.5 -12,-0.6 -3,3 -18.5,4.5 -6,0.6667 -19.5,1.6 -25.5,0 -7.5,-2 -9,-8.5 -12,-13.5 -3,-5 -7,-8 -11,-8 -1.333,0.6667 -4.6,2 -7,2 -3,0 -7,-4.5 -13,-4 -6,0.5 -15.105,5.5947 -16.5,14.5 -0.626,4 -16.427,13.2264 -20.5,12.1697 -4.072,-1.0567 -4.497,-6.0613 -7,3.0729 -0.873,3.1881 -17,8.7574 -20.5,9.3894 -2.074,0.323 -3.674,0.186 -4.5,-0.632 -2.01,-1.9897 -4,-2.5 -4.5,2.5 -0.3,3 -27.666,10 -31,11 -4.9996,1.5 -5.4996,0 -7.4996,-1.5 -2,-1.5 -1.8676,-0.479 -2.5,3 -1,5.5 -2.5,3.5 -21.5,14 -1.9571,1.082 -4,-0.5 -6,-2 -2,-1.5 -1.4932,2.541 -1,5.5 0.5,3 -19.5,25 -21,25.5 -1.5,0.5 -4.4,-1.1 -6,-3.5 -2,-3 -3.5,3 0,7 -1.6667,3.5 -5.4,11.1 -7,13.5 -2,3 -7,1.5 -9,1.5 -2,0 -1,2.5 2.5,5 3.5,2.5 -3.5,16.5 -4.5,17.5 -1,1 -1.5,0 -4,0 -2.5,0 -4.00002,2.5 0,4.5 4,2 3,2.5 1.5,10 -1.5,7.5 -3,40.5 -3,48.5 H 114.5 c 2,0 26,0 26,0 0,0 -6,-13 -7.717,-22.5 0,-7.5 0,-15 0,-21.5 8,0 15.125,-7 19.5,-10.5 4,-3.2 5,-3.5 19,-19 14,-15.5 34,-20 43,-20 5.5,0 23,-5 28.5,-9.5 5.5,-4.5 17,-14 26,-16.5 9,-2.5 39,-12.5 41.5,-13.5 2.5,-1 11.5,-7.5 16.5,-9 5,-1.5 16,-7 23.5,-11.5 7.5,-4.5 7.5,-10 7.5,-11 0,-0.8 0,-4 0,-5.5 z"
         stroke="#343434"
         stroke-linecap="round"
         id="path10" />
      <path
         d="m 129.783,192.5 c 2.4,1.6 3,9 3,12.5 v 14 c 0,5.167 0,16.9 0,22.5 0,5.6 5.478,16.833 8.217,21.5 h -27 c -2.167,-1.833 -6.2,-6.165 -8.5,-13 -2.404,-7.145 -8.4385,-9.599 -11.5,-13 -3.2947,-3.66 -12,-16.5 -12,-19"
         stroke="#343434"
         stroke-linecap="round"
         id="path12" />
      <path
         d="m 223.783,86 c 0,5.8212 -4.498,10.5 -10,10.5 -5.501,0 -10,-4.6788 -10,-10.5 0,-5.8212 4.499,-10.5 10,-10.5 5.502,0 10,4.6788 10,10.5 z"
         fill="#2a794a"
         stroke="#343434"
         id="path14" />
      <path
         d="m 204.783,90.5 c 0.361,0.4444 1.338,1.5 4.365,1.5 3.784,0 12.514,0.1111 14.135,-3"
         stroke="#343434"
         stroke-linecap="round"
         id="path16" />
    </g>
    <path
       style="fill:#1a1a1a;stroke:#1a1a1a;stroke-width:0.698656"
       d="M -33.442163,134.27419 V -17.334256 H 186.63461 406.71139 V 134.27419 285.88263 H 186.63461 -33.442163 Z M 187.40796,262.8402 c 46.58775,-3.40989 88.10292,-31.33939 108.5431,-73.02282 6.69051,-13.64388 11.42776,-29.99559 12.84574,-44.34007 0.44286,-4.48007 0.95913,-6.71431 1.60083,-6.92791 0.52093,-0.17341 6.39452,-3.11096 13.05241,-6.5279 6.65788,-3.41694 14.26659,-6.94386 16.90824,-7.83759 8.76027,-2.96381 16.51697,-8.60334 20.93689,-15.22222 l 2.79818,-4.1903 V 92.748979 c 0,-17.834813 -1.39125,-20.584012 -12.56724,-24.833708 -7.06909,-2.688032 -11.0776,-2.650221 -16.8709,0.159154 -5.17747,2.51074 -7.15854,2.821328 -10.11539,1.58588 -1.39508,-0.582903 -3.3989,-1.05982 -4.45294,-1.05982 -2.37447,0 -5.30223,2.219163 -5.86007,4.441771 -0.55402,2.207405 -3.11917,3.184609 -10.27324,3.91365 -4.30184,0.438379 -5.95949,0.381934 -6.16685,-0.209995 -1.02926,-2.938137 -7.10655,-13.5443 -11.19618,-19.539709 C 265.98103,26.992578 233.74661,6.7369454 197.41249,1.1680347 188.23551,-0.23851512 167.58306,-0.24096252 158.42111,1.1634235 115.49442,7.7433768 79.253942,34.059145 59.857381,72.734784 50.119138,92.152291 45.979654,110.89367 46.303894,134.09785 l 0.178143,12.7488 -2.409317,2.49572 c -2.047119,2.12054 -2.72441,2.42836 -4.505286,2.04766 -5.639077,-1.20551 -8.8106,-1.19326 -10.17253,0.0393 -1.662833,1.50485 -1.816634,6.04748 -0.303012,8.94971 1.567678,3.00589 1.270605,5.51048 -1.030365,8.68687 -2.702936,3.7313 -3.960996,4.33308 -9.058527,4.33308 -3.306327,0 -4.545017,0.30715 -5.635182,1.39731 -2.23074,2.23074 -1.812131,5.10701 1.06236,7.29949 4.216329,3.21596 4.714288,4.46251 3.384159,8.47169 -1.637126,4.9345 -3.148795,6.32028 -7.449972,6.8295 -2.2750456,0.26935 -3.9765542,0.89202 -4.5504851,1.66525 -1.4505072,1.9542 -0.4294096,5.17737 2.4094627,7.60564 l 2.5470664,2.17866 -0.7972653,5.36043 c -0.4384949,2.94824 -0.7972641,7.03826 -0.7972641,9.08895 0,4.19284 -0.4911694,4.82474 -4.6049814,5.92434 -3.57680098,0.95606 -5.7701392,3.16543 -4.74921633,4.78393 0.39466892,0.62568 2.26782483,1.65594 4.16256843,2.28946 l 3.4449882,1.15186 0.19008,13.04009 0.1900807,13.04008 85.3953358,-0.0204 c 46.967425,-0.0112 89.358875,-0.31048 94.203225,-0.66505 z"
       id="path49"
       inkscape:export-xdpi="96"
       inkscape:export-ydpi="96" />
  </g>
</svg>
